HIERARCHY
ROOT SpineBase
{
  OFFSET 0.000000 0.000000 0.000000
  CHANNELS 6 Xposition Yposition Zposition Zrotation Xrotation Yrotation
  JOINT SpineMid
  {
    OFFSET -0.000000 30.152121 0.000000
    CHANNELS 3 Zrotation Xrotation Yrotation
    JOINT SpineShoulder
    {
      OFFSET -0.140166 22.342577 -0.615463
      CHANNELS 3 Zrotation Xrotation Yrotation
      JOINT Neck
      {
        OFFSET -0.103813 7.366958 -0.481141
        CHANNELS 3 Zrotation Xrotation Yrotation
        JOINT Head
        {
          OFFSET 2.498859 14.100744 -1.055628
          CHANNELS 3 Zrotation Xrotation Yrotation
          End Site
          {
            OFFSET 0 0 0
          }
        }
      }
      JOINT ShoulderLeft
      {
        OFFSET -16.872366 -3.072722 -2.121219
        CHANNELS 3 Zrotation Xrotation Yrotation
        JOINT ElbowLeft
        {
          OFFSET -4.060736 -24.910262 -0.215204
          CHANNELS 3 Zrotation Xrotation Yrotation
          JOINT WristLeft
          {
            OFFSET 0.649301 -21.801978 -6.192141
            CHANNELS 3 Zrotation Xrotation Yrotation
            JOINT HandLeft
            {
              OFFSET 1.876434 -6.897621 -1.214607
              CHANNELS 3 Zrotation Xrotation Yrotation
              JOINT HandTipLeft
              {
                OFFSET 0.212093 -6.836739 -1.790942
                CHANNELS 3 Zrotation Xrotation Yrotation
                End Site
                {
                  OFFSET 0 0 0
                }
              }
              JOINT ThumbLeft
              {
                OFFSET 3.648001 0.697556 -0.528404
                CHANNELS 3 Zrotation Xrotation Yrotation
                End Site
                {
                  OFFSET 0 0 0
                }
              }
            }
          }
        }
      }
      JOINT ShoulderRight
      {
        OFFSET 16.312611 -4.174290 1.798338
        CHANNELS 3 Zrotation Xrotation Yrotation
        JOINT ElbowRight
        {
          OFFSET 2.383206 -25.916133 2.945901
          CHANNELS 3 Zrotation Xrotation Yrotation
          JOINT WristRight
          {
            OFFSET 1.574006 -23.465859 -4.987071
            CHANNELS 3 Zrotation Xrotation Yrotation
            JOINT HandRight
            {
              OFFSET 0.787860 -6.650510 -2.561515
              CHANNELS 3 Zrotation Xrotation Yrotation
              JOINT HandTipRight
              {
                OFFSET -0.167589 -5.861926 -0.736870
                CHANNELS 3 Zrotation Xrotation Yrotation
                End Site
                {
                  OFFSET 0 0 0
                }
              }
              JOINT ThumbRight
              {
                OFFSET -1.247971 -2.662475 -0.153641
                CHANNELS 3 Zrotation Xrotation Yrotation
                End Site
                {
                  OFFSET 0 0 0
                }
              }
            }
          }
        }
      }
    }
  }
  JOINT HipLeft
  {
    OFFSET -7.872259 0.450450 -3.964627
    CHANNELS 3 Zrotation Xrotation Yrotation
    JOINT KneeLeft
    {
      OFFSET -5.201284 -34.319701 1.615046
      CHANNELS 3 Zrotation Xrotation Yrotation
      JOINT AnkleLeft
      {
        OFFSET 0.044019 -34.566703 8.487725
        CHANNELS 3 Zrotation Xrotation Yrotation
        JOINT FootLeft
        {
          OFFSET 0.039445 -5.770403 -10.503095
          CHANNELS 3 Zrotation Xrotation Yrotation
          End Site
          {
            OFFSET 0 0 0
          }
        }
      }
    }
  }
  JOINT HipRight
  {
    OFFSET 6.737089 -0.008696 -2.687045
    CHANNELS 3 Zrotation Xrotation Yrotation
    JOINT KneeRight
    {
      OFFSET 3.690589 -34.840482 3.238734
      CHANNELS 3 Zrotation Xrotation Yrotation
      JOINT AnkleRight
      {
        OFFSET 5.914052 -36.551268 13.651566
        CHANNELS 3 Zrotation Xrotation Yrotation
        JOINT FootRight
        {
          OFFSET 0.503806 -4.674306 -12.822789
          CHANNELS 3 Zrotation Xrotation Yrotation
          End Site
          {
            OFFSET 0 0 0
          }
        }
      }
    }
  }
}
MOTION
Frames: 5
Frame Time: 0.033333
65.413341 79.309471 409.148330 -0.597726 -0.656045 2.582192 -0.403483 -0.212654 -2.618176 -0.253894 -0.027268 -0.059634 5.896915 0.291136 0.498371 0.000000 0.000000 0.000000 2.554083 -3.103136 0.755144 -9.425127 -3.781984 1.531828 1.202968 7.123700 -0.663101 2.477975 -0.232220 0.089666 0.000000 0.000000 0.000000 0.000000 0.000000 0.000000 4.445335 3.082245 0.535350 3.189555 -2.964161 -1.750818 -6.565212 6.467475 2.131315 3.440761 -7.544989 -0.663332 0.000000 0.000000 0.000000 0.000000 0.000000 0.000000 4.531835 2.317874 -2.793203 -2.074944 -0.464785 0.508773 -4.467676 7.451814 4.169538 0.000000 0.000000 0.000000 0.808005 3.830497 -2.252062 -7.169855 -0.591587 -2.877482 4.626080 -2.355823 9.490821 0.000000 0.000000 0.000000
65.467217 79.340652 409.095733 -0.801498 -0.684023 2.851663 -0.466760 -0.177652 -2.896067 -0.274853 -0.021045 -0.070833 6.387872 -0.109845 0.616002 0.000000 0.000000 0.000000 3.295381 -2.973917 0.752819 -8.844487 -4.015752 1.241757 2.413762 10.776205 0.158633 -0.321283 -5.494812 -0.660500 0.000000 0.000000 0.000000 0.000000 0.000000 0.000000 4.718448 3.046563 0.549241 3.463492 -2.827730 -1.790537 -6.352968 4.930744 1.820023 2.726322 -5.982939 -0.432565 0.000000 0.000000 0.000000 0.000000 0.000000 0.000000 4.891152 2.839715 -3.164039 -2.331228 -0.977387 0.540974 -4.352298 7.429548 4.241815 0.000000 0.000000 0.000000 0.999992 3.688484 -2.542258 -7.009498 -0.491069 -2.793243 4.471700 -2.316123 9.481626 0.000000 0.000000 0.000000
65.537470 79.360616 409.071765 -1.001487 -0.745355 3.072345 -0.508041 -0.144169 -3.124841 -0.280548 -0.020805 -0.080516 6.773405 -0.552825 0.742633 0.000000 0.000000 0.000000 3.878499 -2.830318 0.749225 -8.768963 -3.700499 1.177175 4.523130 13.335700 0.337874 -3.942185 -7.143993 -1.063904 0.000000 0.000000 0.000000 0.000000 0.000000 0.000000 4.857283 3.085786 0.553528 3.903139 -2.920158 -1.832618 -6.557909 3.471934 1.687744 3.152716 -5.240770 -0.282905 0.000000 0.000000 0.000000 0.000000 0.000000 0.000000 5.221297 3.689958 -3.547351 -2.623138 -2.111792 0.592818 -4.120903 7.731986 4.304112 0.000000 0.000000 0.000000 1.203211 3.577939 -2.783397 -6.893920 -0.322249 -2.708480 4.367110 -2.344650 9.422317 0.000000 0.000000 0.000000
65.623027 79.367581 409.048643 -1.195512 -0.827081 3.357858 -0.515287 -0.109225 -3.417749 -0.272305 -0.025698 -0.088145 7.091722 -1.043402 0.879550 0.000000 0.000000 0.000000 4.062720 -2.558955 0.718777 -8.348577 -3.382859 1.108881 4.506096 16.873849 1.507543 -5.641045 -7.601367 -2.068830 0.000000 0.000000 0.000000 0.000000 0.000000 0.000000 4.985475 3.036996 0.549460 4.282065 -2.890956 -1.877581 -6.876196 1.335402 1.538465 2.774492 -1.494134 -0.225788 0.000000 0.000000 0.000000 0.000000 0.000000 0.000000 5.572655 4.820908 -4.052217 -2.999940 -3.804390 0.644868 -3.757514 8.319988 4.343612 0.000000 0.000000 0.000000 1.502994 3.631105 -3.069735 -6.968545 -0.356946 -2.722220 4.384388 -2.305355 9.348982 0.000000 0.000000 0.000000
65.713862 79.360815 409.027782 -1.373623 -0.911512 3.566283 -0.494475 -0.068150 -3.632448 -0.270479 -0.026027 -0.094344 7.395911 -1.507051 1.009599 0.000000 0.000000 0.000000 4.156838 -2.219956 0.672207 -8.308270 -2.394921 1.230522 2.910045 19.060819 3.107815 -5.266362 -6.896026 -3.007740 0.000000 0.000000 0.000000 0.000000 0.000000 0.000000 5.139980 2.924284 0.545106 4.533095 -2.785588 -1.921143 -7.527836 -0.505353 1.560358 2.945055 0.097494 -0.228561 0.000000 0.000000 0.000000 0.000000 0.000000 0.000000 5.865613 6.113247 -4.513391 -3.108781 -5.904398 0.775152 -3.606442 9.159853 4.381960 0.000000 0.000000 0.000000 1.872778 3.809749 -3.262194 -7.244828 -0.548445 -2.831200 4.507984 -2.223349 9.361913 0.000000 0.000000 0.000000
